<svg width="101" height="41" viewBox="0 0 159 67" fill="none" xmlns="http://www.w3.org/2000/svg" class="cursor-pointer"><path d="M47.3889 0.0195503C43.2473 0.37344 40.2748 1.17196 37.0214 2.79622C29.1732 6.72529 23.772 14.3838 22.6936 23.1131C22.6211 23.7301 22.5576 24.3018 22.5576 24.3925C22.5576 24.5468 22.8023 24.5558 27.5148 24.5377L32.472 24.5105L32.5807 23.6394C33.5776 15.6996 40.1207 9.69251 48.1592 9.33862C53.8051 9.09363 59.3786 11.9973 62.4689 16.8157C63.6832 18.7031 64.5714 21.0805 64.8795 23.2401C64.9339 23.6394 64.9973 24.1021 65.0245 24.2564L65.0698 24.5558H70.0451C74.7667 24.5558 75.0295 24.5468 75.0295 24.3925C75.0295 24.3018 74.9661 23.7301 74.8936 23.1131C73.4073 11.1444 63.9551 1.68011 52.0017 0.191957C50.887 0.0558472 48.1682 -0.0439682 47.3889 0.0195503Z" fill="#FFFFFF"></path><path d="M14.8996 24.8825C11.8364 25.2909 9.07238 26.4251 6.65269 28.2581C5.85519 28.8661 4.31457 30.3905 3.66207 31.2253C0.934257 34.7098 -0.370742 39.1742 0.091445 43.4118C0.444882 46.7329 1.63207 49.6729 3.66207 52.2772C4.43238 53.2663 6.10894 54.8724 7.15113 55.6074C8.77332 56.7598 11.0571 57.8033 12.9693 58.2661C13.8664 58.4838 14.0205 58.4929 16.8208 58.4929H19.748L19.5577 58.0211C18.878 56.297 18.6514 53.7744 19.0139 51.9051C19.1771 51.0613 19.4308 50.1538 19.7027 49.4824C19.7661 49.3372 19.6664 49.3281 18.4158 49.3281C16.9296 49.3281 16.3224 49.2464 15.3074 48.9107C13.1958 48.2211 11.2474 46.2701 10.5586 44.1559C9.82457 41.9237 10.0511 39.6279 11.2021 37.6679C11.9814 36.325 13.5674 34.9638 14.9539 34.4375C16.1955 33.9566 16.2046 33.9566 20.4277 33.9113L24.4061 33.8568L28.3302 29.3651C30.478 26.897 32.2452 24.8462 32.2452 24.8009C32.2542 24.7646 28.5568 24.7374 24.0346 24.7464C17.6908 24.7555 15.5974 24.7827 14.8996 24.8825Z" fill="#FFFFFF"></path><path d="M29.1549 45.4353C27.433 45.6894 25.7565 46.4788 24.4877 47.6403C22.5574 49.4098 21.479 52.377 21.8233 54.9903C22.3671 59.0555 25.3305 61.9864 29.4268 62.4946C31.8918 62.8031 34.6377 61.8503 36.4321 60.0446C38.2355 58.2479 39.1871 55.4985 38.879 53.0303C38.6887 51.4605 38.2083 50.2083 37.3111 48.9016C35.5893 46.4062 32.2361 44.9816 29.1549 45.4353Z" fill="#FFFFFF"></path></svg>